<?xml version="1.0" encoding="UTF-8" standalone="no"?>
<!-- Created with Inkscape (http://www.inkscape.org/) -->

<svg
   width="320mm"
   height="320mm"
   viewBox="0 0 320 320"
   version="1.1"
   id="svg1"
   inkscape:version="1.3 (0e150ed6c4, 2023-07-21)"
   sodipodi:docname="background.svg"
   xmlns:inkscape="http://www.inkscape.org/namespaces/inkscape"
   xmlns:sodipodi="http://sodipodi.sourceforge.net/DTD/sodipodi-0.dtd"
   xmlns:xlink="http://www.w3.org/1999/xlink"
   xmlns="http://www.w3.org/2000/svg"
   xmlns:svg="http://www.w3.org/2000/svg">
  <sodipodi:namedview
     id="namedview1"
     pagecolor="#505050"
     bordercolor="#eeeeee"
     borderopacity="1"
     inkscape:showpageshadow="0"
     inkscape:pageopacity="0"
     inkscape:pagecheckerboard="0"
     inkscape:deskcolor="#505050"
     inkscape:document-units="mm"
     showgrid="false"
     inkscape:zoom="0.53183923"
     inkscape:cx="115.63645"
     inkscape:cy="650.57254"
     inkscape:window-width="2560"
     inkscape:window-height="1408"
     inkscape:window-x="0"
     inkscape:window-y="32"
     inkscape:window-maximized="1"
     inkscape:current-layer="layer1">
    <inkscape:grid
       id="grid8"
       units="mm"
       originx="207.87401"
       originy="43.464545"
       spacingx="0.99999998"
       spacingy="1"
       empcolor="#0099e5"
       empopacity="0.30196078"
       color="#0099e5"
       opacity="0.14901961"
       empspacing="5"
       dotted="false"
       gridanglex="30"
       gridanglez="30"
       visible="false" />
  </sodipodi:namedview>
  <defs
     id="defs1">
    <inkscape:path-effect
       effect="spiro"
       id="path-effect29"
       is_visible="true"
       lpeversion="1" />
    <inkscape:path-effect
       effect="spiro"
       id="path-effect23"
       is_visible="true"
       lpeversion="1" />
    <linearGradient
       id="linearGradient20"
       inkscape:collect="always">
      <stop
         style="stop-color:#2b2167;stop-opacity:1"
         offset="0"
         id="stop20" />
      <stop
         style="stop-color:#6c2880;stop-opacity:1;"
         offset="1"
         id="stop21" />
    </linearGradient>
    <linearGradient
       id="linearGradient18"
       inkscape:collect="always">
      <stop
         style="stop-color:#6c237e;stop-opacity:1;"
         offset="0"
         id="stop18" />
      <stop
         style="stop-color:#1b3b9a;stop-opacity:1;"
         offset="1"
         id="stop19" />
    </linearGradient>
    <linearGradient
       id="linearGradient16"
       inkscape:collect="always">
      <stop
         style="stop-color:#313062;stop-opacity:1;"
         offset="0"
         id="stop16" />
      <stop
         style="stop-color:#38249c;stop-opacity:1;"
         offset="1"
         id="stop17" />
    </linearGradient>
    <inkscape:path-effect
       effect="spiro"
       id="path-effect4"
       is_visible="true"
       lpeversion="1" />
    <inkscape:path-effect
       effect="spiro"
       id="path-effect3"
       is_visible="true"
       lpeversion="1" />
    <inkscape:path-effect
       effect="spiro"
       id="path-effect2"
       is_visible="true"
       lpeversion="1" />
    <inkscape:path-effect
       effect="spiro"
       id="path-effect1"
       is_visible="true"
       lpeversion="1" />
    <clipPath
       clipPathUnits="userSpaceOnUse"
       id="clipPath13">
      <rect
         style="fill:#1d3656;fill-opacity:1;stroke-width:0.628187"
         id="rect14"
         width="413.63397"
         height="168.23283"
         x="-102.10069"
         y="-143.88454"
         ry="0"
         d="M -102.10069,-143.88454 H 311.53328 V 24.348297 h -413.63397 z" />
    </clipPath>
    <inkscape:path-effect
       effect="spiro"
       id="path-effect1-7"
       is_visible="true"
       lpeversion="1" />
    <clipPath
       clipPathUnits="userSpaceOnUse"
       id="clipPath15">
      <rect
         style="fill:#1d3656;fill-opacity:1;stroke-width:0.264583"
         id="rect16"
         width="337.93823"
         height="69.404343"
         x="-95.160446"
         y="-21.914108"
         d="M -95.160446,-21.914108 H 242.77779 V 47.490234 H -95.160446 Z" />
    </clipPath>
    <linearGradient
       inkscape:collect="always"
       xlink:href="#linearGradient16"
       id="linearGradient17"
       x1="117.23773"
       y1="241.70229"
       x2="85.517296"
       y2="152.59291"
       gradientUnits="userSpaceOnUse" />
    <linearGradient
       inkscape:collect="always"
       xlink:href="#linearGradient18"
       id="linearGradient19"
       x1="105.90877"
       y1="209.91707"
       x2="104.26583"
       y2="78.023987"
       gradientUnits="userSpaceOnUse" />
    <linearGradient
       inkscape:collect="always"
       xlink:href="#linearGradient20"
       id="linearGradient21"
       x1="96.202187"
       y1="114.40116"
       x2="75.519363"
       y2="43.242237"
       gradientUnits="userSpaceOnUse" />
    <clipPath
       clipPathUnits="userSpaceOnUse"
       id="clipPath10">
      <rect
         style="fill:#000000;stroke-width:0.264583"
         id="rect11"
         width="210"
         height="297"
         x="0"
         y="24.341677" />
    </clipPath>
    <clipPath
       clipPathUnits="userSpaceOnUse"
       id="clipPath11">
      <rect
         style="fill:#000000;stroke-width:0.264583"
         id="rect12"
         width="210"
         height="297"
         x="0"
         y="29.633347"
         d="M 0,29.633347 H 210 V 326.63335 H 0 Z" />
    </clipPath>
    <clipPath
       clipPathUnits="userSpaceOnUse"
       id="clipPath12">
      <rect
         style="fill:#000000;stroke-width:0.264583"
         id="rect13"
         width="210"
         height="297"
         x="0"
         y="37.041683"
         d="M 0,37.041683 H 210 V 334.04168 H 0 Z" />
    </clipPath>
    <clipPath
       clipPathUnits="userSpaceOnUse"
       id="clipPath14">
      <rect
         style="fill:#000000;stroke-width:0.264583"
         id="rect15"
         width="210"
         height="297"
         x="10.054167"
         y="-12.700002"
         d="M 10.054167,-12.700002 H 220.05417 V 284.3 H 10.054167 Z" />
    </clipPath>
    <clipPath
       clipPathUnits="userSpaceOnUse"
       id="clipPath16">
      <rect
         style="fill:#000000;stroke-width:0.264583"
         id="rect17"
         width="210"
         height="297"
         x="-8.1062012"
         y="-272.65268" />
    </clipPath>
    <linearGradient
       inkscape:collect="always"
       xlink:href="#linearGradient25"
       id="linearGradient24"
       x1="101.88037"
       y1="34.556374"
       x2="82.56192"
       y2="-50.998039"
       gradientUnits="userSpaceOnUse" />
    <linearGradient
       id="linearGradient25"
       inkscape:collect="always">
      <stop
         style="stop-color:#2d1f53;stop-opacity:1;"
         offset="0"
         id="stop25" />
      <stop
         style="stop-color:#1f5780;stop-opacity:1;"
         offset="1"
         id="stop24" />
    </linearGradient>
    <inkscape:path-effect
       effect="spiro"
       id="path-effect23-7"
       is_visible="true"
       lpeversion="1" />
    <clipPath
       clipPathUnits="userSpaceOnUse"
       id="clipPath26">
      <rect
         style="fill:#000000;stroke-width:0.264583"
         id="rect26"
         width="210"
         height="93.811951"
         x="-289.6087"
         y="-14.031933" />
    </clipPath>
    <clipPath
       clipPathUnits="userSpaceOnUse"
       id="clipPath29">
      <rect
         style="fill:#000000;stroke-width:0.264583"
         id="rect29"
         width="210"
         height="88.54493"
         x="0"
         y="5.5761717e-07"
         d="M 0,5.5761717e-7 H 210 V 88.54493 H 0 Z" />
    </clipPath>
    <linearGradient
       inkscape:collect="always"
       xlink:href="#linearGradient25"
       id="linearGradient29"
       gradientUnits="userSpaceOnUse"
       x1="101.88037"
       y1="34.556374"
       x2="82.56192"
       y2="-50.998039" />
  </defs>
  <g
     inkscape:label="Layer 1"
     inkscape:groupmode="layer"
     id="layer1"
     transform="translate(54.999997,11.499995)">
    <path
       style="fill:url(#linearGradient29);fill-opacity:1;stroke-width:0.264583"
       d="m 0,88.381863 c 8.5729094,0.779699 17.268399,-1.287776 24.981965,-5.109241 7.713567,-3.821466 14.493794,-9.342219 20.450718,-15.556538 8.550614,-8.920082 15.503555,-19.30495 24.383127,-27.897626 11.723161,-11.344389 27.05771,-19.386493 43.33117,-20.527625 10.26385,-0.719725 20.52777,1.272426 30.48173,3.876897 9.95295,2.604207 19.76581,5.835246 29.90367,7.586508 12.53215,2.164863 25.48205,2.018885 37.91429,-0.660853 13.65239,-2.94274 26.84548,-9.097862 36.68523,-19.008816 9.83974,-9.9109535 16.03316,-23.79804 15.1346,-37.735048 -0.73857,-11.455508 -6.16058,-22.310643 -13.87769,-30.808899 -7.71711,-8.498256 -17.62089,-14.782735 -28.06748,-19.541197 -18.85639,-8.589163 -39.53447,-12.409247 -60.1321,-14.661983 -41.87969,-4.580325 -85.541549,-2.709836 -124.134713,14.185585 -19.296582,8.44771 -37.08003215,20.631501 -51.077226,36.37318 -13.997193,15.741679 -24.113612,35.1028876 -27.9213,55.820595 -2.877399,15.655982 -2.018361,32.402254 5.064524,46.657848 3.541443,7.127796 8.613387,13.535125 14.962976,18.334085 C -15.56692,84.507696 -7.9263868,87.660965 0,88.381863 Z"
       id="path23"
       transform="translate(-289.60871,79.780018)"
       inkscape:original-d="M 0,88.381863 C 13.981336,112.93688 30.288455,74.604678 45.432683,67.716084 60.576909,60.827493 61.688101,49.117665 69.81581,39.818458 c 8.127709,-9.29921 28.887446,-13.685084 43.33117,-20.527625 14.44372,-6.842542 20.32115,2.584598 30.48173,3.876897 10.16058,1.2923 19.93578,5.05767 29.90367,7.586508 9.96789,2.528834 25.27619,-0.440569 37.91429,-0.660853 12.6381,-0.220284 34.54655,-37.8292436 51.81983,-56.743864 17.27327,-18.914623 -27.96345,-33.566732 -41.94517,-50.350096 C 207.3396,-93.78394 181.23327,-86.775231 161.18923,-91.662558 141.1452,-96.549883 25.767073,-20.742984 -41.944009,14.716802 -109.65509,50.176588 -13.981336,63.826842 0,88.381863 Z"
       inkscape:path-effect="#path-effect23-7" />
    <use
       x="0"
       y="0"
       xlink:href="#path23"
       id="use25"
       clip-path="url(#clipPath26)"
       transform="matrix(1.5238095,0,0,1.0774411,386.3085,222.54174)" />
    <path
       style="fill:url(#linearGradient19);fill-opacity:1;stroke-width:0.264583"
       d="m -56.424374,261.16713 c 5.519912,9.98488 13.741741,18.47737 23.60542,24.21105 9.863679,5.73367 21.347422,8.6784 32.74938878,8.27548 C 14.318604,293.14521 28.197004,287.38238 39.904138,279.00259 58.884166,265.41697 72.409826,245.3424 91.151399,231.42967 c 8.400254,-6.23589 17.821021,-11.17482 27.891691,-14.00892 10.07068,-2.8341 20.80188,-3.52598 31.05998,-1.47123 11.64363,2.33228 22.27297,8.05308 33.0499,13.04019 10.77693,4.98711 22.30273,9.37365 34.1608,8.74145 8.92362,-0.47575 17.61693,-3.85961 24.74094,-9.25459 7.12401,-5.39499 12.68862,-12.75166 16.28414,-20.93272 7.19104,-16.3621 6.34047,-35.51247 0.31217,-52.33772 C 253.24626,140.12119 243.89491,126.60877 232.47265,115.3705 221.05039,104.13224 207.5887,95.104102 193.36556,87.723786 167.82035,74.468505 139.51528,66.394921 110.77384,64.915089 82.032399,63.435256 52.884786,68.611712 26.70615,80.56743 c -26.17863617,11.955717 -49.306354,30.73614 -65.790595,54.32703 -16.484242,23.59088 -26.201011,51.97406 -26.913157,80.74476 -0.388306,15.68754 1.981001,31.79446 9.573228,45.52791 z"
       id="path3"
       inkscape:path-effect="#path-effect3"
       inkscape:original-d="m -56.424374,261.16713 c 3.191076,15.17598 37.569872,21.65769 56.35480878,32.48653 C 18.715371,304.4825 26.57957,283.88627 39.904138,279.00259 c 13.324567,-4.8837 34.164841,-31.71528 51.247261,-47.57292 17.082421,-15.85763 39.301111,-10.3201 58.951671,-15.48015 19.65056,-5.16005 44.80713,14.5211 67.2107,21.78164 22.40357,7.26055 27.55817,-55.01668 41.33725,-82.52503 C 272.4301,127.69779 215.12738,110.2179 193.36556,87.723786 171.60374,65.22967 20.456785,173.00074 -65.997602,215.63922 c -86.454388,42.63848 6.382152,30.35194 9.573228,45.52791 z"
       transform="matrix(1.5238095,0,0,1.0774411,-54.999997,-51.410227)"
       clip-path="url(#clipPath12)" />
    <path
       style="fill:url(#linearGradient21);fill-opacity:1;stroke-width:0.264583"
       d="m -66.260275,128.27469 c -0.579855,8.74643 -0.08207,17.61734 2.156818,26.09222 2.238892,8.47489 6.267355,16.55399 12.211901,22.99594 8.733375,9.46413 21.367132,14.9748 34.212102,15.89588 12.84497,0.92107 25.8254795,-2.57272 36.997223,-8.97848 17.125064,-9.81933 29.639089,-25.82065 42.211275,-41.03996 6.650722,-8.05106 13.532547,-16.07632 22.040601,-22.13145 8.508055,-6.05513 18.912415,-10.03546 29.304185,-9.00459 8.12508,0.80601 15.69888,4.59594 22.33061,9.359 6.63173,4.76306 12.4802,10.51376 18.6363,15.87744 8.21069,7.1538 17.05005,13.67288 26.7878,18.54817 9.73774,4.8753 20.42013,8.07684 31.3053,8.40142 16.35765,0.48777 32.67724,-5.70781 45.13796,-16.31635 8.69231,-7.40028 15.60993,-16.93976 19.59384,-27.63784 3.9839,-10.69808 4.98255,-22.543619 2.48298,-33.682406 C 275.24977,69.279321 263.13365,54.576188 248.56238,44.341571 233.9911,34.106953 217.03111,27.857157 200.05322,22.488665 147.43771,5.851384 90.213898,-3.27214 37.276575,12.310902 10.807913,20.102423 -14.065041,34.153882 -32.9447,54.274924 -51.824359,74.395965 -64.435062,100.7435 -66.260275,128.27469 Z"
       id="path2"
       inkscape:path-effect="#path-effect2"
       inkscape:original-d="m -66.260275,128.27469 c -88.771165,35.262 6.040067,30.78778 14.368719,49.08816 8.328654,18.30038 44.5973199,5.76907 71.209325,6.9174 26.612003,1.14834 34.555493,-26.57978 42.211275,-41.03996 7.655782,-14.46017 34.229854,-20.75736 51.344786,-31.13604 17.11492,-10.37868 27.31127,16.82429 40.96691,25.23644 13.65564,8.41214 44.05337,11.06923 58.0931,26.94959 14.03974,15.88036 22.29211,-18.43748 45.13796,-16.31635 22.84584,2.12113 17.19311,-26.42309 22.07682,-61.320246 4.8837,-34.897158 -52.73026,-42.776679 -79.0954,-64.165019 C 173.68809,1.1003257 22.510891,93.01268 -66.260275,128.27469 Z"
       transform="matrix(1.5238095,0,0,1.0774411,-54.999997,-43.42818)"
       sodipodi:nodetypes="sssssssssss"
       clip-path="url(#clipPath11)" />
    <path
       style="fill:url(#linearGradient17);fill-opacity:1;stroke-width:0.264583"
       d="m 3.2469783,208.94619 c -11.0934075,3.20431 -22.8869273,3.4148 -33.9610553,6.68512 -5.537064,1.63516 -10.912118,4.06797 -15.349231,7.76187 -4.437113,3.69389 -7.891453,8.72917 -9.038705,14.3875 -1.089506,5.37352 -0.04008,11.07256 2.47061,15.9468 2.510686,4.87423 6.419655,8.94998 10.917328,12.08569 8.995345,6.27141 20.017176,8.76775 30.75474,10.99296 11.89006484,2.46405 23.886488,4.76664 36.026548,5.01988 12.140061,0.25324 24.527268,-1.63385 35.338889,-7.16142 14.648259,-7.4891 25.52306,-21.12699 40.402878,-28.14476 14.87813,-7.01697 32.2824,-6.64456 48.36105,-3.16983 16.07865,3.47473 31.36977,9.84259 47.13839,14.52738 12.67399,3.76539 25.80229,6.45655 39.02018,6.14763 13.2179,-0.30893 26.5932,-3.77537 37.37144,-11.43289 5.38913,-3.82876 10.0787,-8.67661 13.53458,-14.31212 3.45587,-5.63551 5.66035,-12.06342 6.16592,-18.65482 0.50557,-6.59139 -0.71206,-13.3362 -3.69143,-19.2375 -2.97938,-5.9013 -7.73752,-10.92597 -13.57466,-14.02916 -7.36426,-3.91505 -16.01003,-4.65126 -24.34412,-4.33039 -8.33408,0.32087 -16.63058,1.61761 -24.96916,1.45034 -16.23398,-0.32565 -31.87516,-6.18432 -46.38876,-13.46467 -11.12556,-5.58083 -21.81911,-12.04254 -33.2395,-16.99212 -11.4204,-4.94959 -23.80148,-8.38073 -36.2139,-7.45578 -10.467096,0.77998 -20.530361,4.63947 -29.59632,9.92879 -9.065959,5.28932 -17.222658,11.9888 -25.155996,18.86125 -15.866676,13.74491 -31.811961,28.76483 -51.9797157,34.59025 z"
       id="path4"
       transform="matrix(1.5238095,0,0,1.0774411,-70.320632,2.1835071)"
       sodipodi:nodetypes="sssssssssss"
       inkscape:original-d="m 3.2469783,208.94619 c -35.6802753,15.52824 -38.8993283,19.22299 -58.3489913,28.83449 -19.449664,9.61149 28.859262,24.66601 44.142678,39.02545 15.2834149,14.35944 48.146149,-0.0767 71.365437,-2.14154 23.219291,-2.06481 26.935255,-18.76318 40.402878,-28.14476 13.46763,-9.38159 66.89442,6.62328 95.49944,11.35755 28.60502,4.73426 61.41964,-85.7848 78.82603,-71.51886 17.40639,14.26591 -59.74921,-3.4307 -49.31328,-2.88005 10.43593,0.55065 -83.55441,82.48628 -46.38876,-13.46467 10.32347,-26.65223 -11.38613,-5.02355 -69.4534,-24.4479 C 51.911745,126.14154 38.927254,193.41795 3.2469783,208.94619 Z"
       inkscape:path-effect="#path-effect4"
       clip-path="url(#clipPath14)" />
    <path
       style="fill:url(#linearGradient24);fill-opacity:1;stroke-width:0.264583"
       d="m 0,88.381863 c 8.5729094,0.779699 17.268399,-1.287776 24.981965,-5.109241 7.713567,-3.821466 14.493794,-9.342219 20.450718,-15.556538 8.550614,-8.920082 15.503555,-19.30495 24.383127,-27.897626 11.723161,-11.344389 27.05771,-19.386493 43.33117,-20.527625 10.26385,-0.719725 20.52777,1.272426 30.48173,3.876897 9.95295,2.604207 19.76581,5.835246 29.90367,7.586508 12.53215,2.164863 25.48205,2.018885 37.91429,-0.660853 13.65239,-2.94274 26.84548,-9.097862 36.68523,-19.008816 9.83974,-9.9109535 16.03316,-23.79804 15.1346,-37.735048 -0.73857,-11.455508 -6.16058,-22.310643 -13.87769,-30.808899 -7.71711,-8.498256 -17.62089,-14.782735 -28.06748,-19.541197 -18.85639,-8.589163 -39.53447,-12.409247 -60.1321,-14.661983 -41.87969,-4.580325 -85.541549,-2.709836 -124.134713,14.185585 -19.296582,8.44771 -37.08003215,20.631501 -51.077226,36.37318 -13.997193,15.741679 -24.113612,35.1028876 -27.9213,55.820595 -2.877399,15.655982 -2.018361,32.402254 5.064524,46.657848 3.541443,7.127796 8.613387,13.535125 14.962976,18.334085 C -15.56692,84.507696 -7.9263868,87.660965 0,88.381863 Z"
       id="path28"
       inkscape:path-effect="#path-effect29"
       inkscape:original-d="M 0,88.381863 C 13.981336,112.93688 30.288455,74.604678 45.432683,67.716084 60.576909,60.827493 61.688101,49.117665 69.81581,39.818458 c 8.127709,-9.29921 28.887446,-13.685084 43.33117,-20.527625 14.44372,-6.842542 20.32115,2.584598 30.48173,3.876897 10.16058,1.2923 19.93578,5.05767 29.90367,7.586508 9.96789,2.528834 25.27619,-0.440569 37.91429,-0.660853 12.6381,-0.220284 34.54655,-37.8292436 51.81983,-56.743864 17.27327,-18.914623 -27.96345,-33.566732 -41.94517,-50.350096 C 207.3396,-93.78394 181.23327,-86.775231 161.18923,-91.662558 141.1452,-96.549883 25.767073,-20.742984 -41.944009,14.716802 -109.65509,50.176588 -13.981336,63.826842 0,88.381863 Z"
       clip-path="url(#clipPath29)"
       transform="matrix(1.5238095,0,0,1.0774411,-54.999997,-11.499996)" />
  </g>
  <g
     inkscape:groupmode="layer"
     id="layer2"
     inkscape:label="Layer 2"
     transform="translate(54.999997,11.499995)" />
</svg>
